# xmcd
#
# Track frame offsets:
#	150
#	6419
#	14871
#	29457
#	32599
#	34546
#	36756
#	42845
#	45401
#	47627
#	49712
#	52800
#	56351
#	58801
#	61945
#	64100
#	68935
#	75619
#	78793
#	82740
#	84655
#	85787
#	91444
#	96074
#	99200
#	102680
#	105193
#	109020
#	114427
#	119663
#	121997
#	128292
#	129659
#	131411
#	134850
#	139462
#	143639
#	145902
#	147911
#	150338
#	151859
#	154028
#	155351
#	157674
#	162711
#	164862
#	166641
#	172156
#	175453
#	178765
#	182727
#	185580
#	188911
#	190334
#	192798
#	198051
#	200774
#	205433
#	211561
#	213712
#	215919
#	230526
#	232923
#	237941
#	239910
#	241869
#	247235
#	252627
#	255228
#	257360
#	259297
#	260507
#	262470
#	274836
#	277239
#
# Disc length: 3755 seconds
#
# Revision: 0
# Processed by: cddbd v1.5.1PL0 Copyright (c) Steve Scherf et al.
# Submitted via: dBpowerAMP V4.0
#
DISCID=470ea94b
DTITLE=Aaron Stang - Guitar Method 1
DYEAR=1900
DGENRE=General Books
TTITLE0=Intro
TTITLE1=Tuning The Guitar
TTITLE2=Notes On The First String
TTITLE3=Folk Song
TTITLE4=Flamenco Fantasy
TTITLE5=The Blues Beat
TTITLE6=Notes On The Second String
TTITLE7=Jingle Bells
TTITLE8=Aura Lee
TTITLE9=The Boogie Shuffle
TTITLE10=Tied Notes
TTITLE11=Mary Ann
TTITLE12=Power Rock
TTITLE13=Pick-Up Notes
TTITLE14=When The Saints Go Marching In
TTITLE15=Notes On The Third String
TTITLE16=Oh Susanna
TTITLE17=Time Signature 3/4
TTITLE18=Down In The Valley
TTITLE19=We Three Kings Of Orient Are
TTITLE20=Repeat Signs
TTITLE21=Red River Valley
TTITLE22=Singing Strings
TTITLE23=New Note: A
TTITLE24=Danny Boy
TTITLE25=Plaiser D'Amour
TTITLE26=Blue Eyes Crying In The Rain
TTITLE27=Notes On The 4th String
TTITLE28=Amazing Grace
TTITLE29=The House Of The Rising Sun
TTITLE30=Eighth Notes
TTITLE31=Ten Little Indians
TTITLE32=Spy To Spy
TTITLE33=Surfin Safari
TTITLE34=The Sharp Sign (F#)
TTITLE35=Aura Lee
TTITLE36=Key Signatures
TTITLE37=Golden Slippers
TTITLE38=Simple Gifts
TTITLE39=C, G, G7 Chords
TTITLE40=Folk Rock Style
TTITLE41=D, D7 Chords
TTITLE42=New River Train
TTITLE43=The Blues Progression
TTITLE44=Blues Changes
TTITLE45=Chuck B. Goode
TTITLE46=Notes On The 5th String
TTITLE47=Brahms Lullaby
TTITLE48=Cielito Lindo
TTITLE49=C, A Minor, D Minor Chords
TTITLE50=The Roots Of Rock
TTITLE51=Eighth Note Strumming
TTITLE52=Wrist Rock
TTITLE53=Battle Of Aughrim
TTITLE54=Power Chords
TTITLE55=Power Study
TTITLE56=Metalurgy
TTITLE57=Notes On The 6th String
TTITLE58=Spanish Serenade
TTITLE59=Surf-Rock Bass
TTITLE60=Getting The Feel
TTITLE61=Rock Steady
TTITLE62=G, G7, E Minor Chords
TTITLE63=Loch Lomond
TTITLE64=F# On The 6th String
TTITLE65=Rock Ballad
TTITLE66=Scarborough Fair
TTITLE67=On Cloud Nine
TTITLE68=The Rest
TTITLE69=Rest and Roll
TTITLE70=Eighth Rest Etude
TTITLE71=A Little Night Music
TTITLE72=Blues Boogie Pattern
TTITLE73=The Boogie Progression
TTITLE74=Old Time Rock and Roll
EXTD=
EXTT0=
EXTT1=
EXTT2=
EXTT3=
EXTT4=
EXTT5=
EXTT6=
EXTT7=
EXTT8=
EXTT9=
EXTT10=
EXTT11=
EXTT12=
EXTT13=
EXTT14=
EXTT15=
EXTT16=
EXTT17=
EXTT18=
EXTT19=
EXTT20=
EXTT21=
EXTT22=
EXTT23=
EXTT24=
EXTT25=
EXTT26=
EXTT27=
EXTT28=
EXTT29=
EXTT30=
EXTT31=
EXTT32=
EXTT33=
EXTT34=
EXTT35=
EXTT36=
EXTT37=
EXTT38=
EXTT39=
EXTT40=
EXTT41=
EXTT42=
EXTT43=
EXTT44=
EXTT45=
EXTT46=
EXTT47=
EXTT48=
EXTT49=
EXTT50=
EXTT51=
EXTT52=
EXTT53=
EXTT54=
EXTT55=
EXTT56=
EXTT57=
EXTT58=
EXTT59=
EXTT60=
EXTT61=
EXTT62=
EXTT63=
EXTT64=
EXTT65=
EXTT66=
EXTT67=
EXTT68=
EXTT69=
EXTT70=
EXTT71=
EXTT72=
EXTT73=
EXTT74=
PLAYORDER=
